/* XPM */
static char *a32c390ea3ac4147dba24fa05fa1700fSnl1AONHLJNSOyJI[] = {
/* columns rows colors chars-per-pixel */
"64 64 19 1 ",
"  c #28200C",
". c #382C14",
"X c #403018",
"o c #483818",
"O c #543C1C",
"+ c #5C4020",
"@ c #6C4824",
"# c #744C28",
"$ c #80502C",
"% c #885830",
"& c #905C34",
"* c #9C6038",
"= c #A0643C",
"- c #A86840",
"; c #B47044",
": c #BC7848",
"> c #C87C4C",
", c #D08050",
"< c #E88C58",
/* pixels */
"                                                                ",
" XXXOO+++O+@+#@#####$#$%##$#$##$ oOooOOOoooOOooOoooooooO+OoXoXXX",
" XoO+OOOO@++@#@##@$$##%$%$%##$#$ OoOOOo+OO+OooOOo+OOOOOOo+OOXOoX",
" XOOOOO@++OO@++$#%*#$$#$%&%%%##$ ++O+O++O+OO++OO+O+OOOOOOO+++OOX",
" oX++++O+@OO@++##$#$$$%%&&&$$%#$ OO@@@#@@+O@++@@@+++@++@+O+++O+O",
" XO++OOOO##$+$#=&&$$$%%&&&%$%%#$ +OO#+#+@@+@@++@@@@@#@@@o@OO+OOO",
" oO++O@@O@+###@+=&&%%%*&%&*%%$#$ @#@##$#@###@@@#@#@#@##@O@@O+OO+",
" O+OO@@@###@%$@+$-=&&%**%%%%$##$ O#+#$@#&&&$#$######$#@#@@@OO@O+",
" +oO+oO@+#$@#%*#=&&%&##$%*&%%$#$ O$#$$&&&$=&&&$$%#$$@###+#OO++O+",
" O+OOO@##$@###$=&&&*&&&%*-%%$##$ @+%%%;=*==*=%%$%&%&#$%$##@#@+@O",
" ++OO@+@+##$##$&%$$%%&&%*%%$$##$ +$=;;%=;>;&&=*=%&%%+#%$$#+#OO++",
" ++@@@OO@##$$#$$%$$&%&&&%%$##$#$ +=;;%=;>;,=*=&&&&&*##&%@@#$OO+@",
" @OO@+$$#$##$%%$%*==%%$==%%$##$$ #=$:*,,$:*,,:*,,;>;***&#%#+@@@+",
" OO@+#@@#$%$$$%*=:=:-=%%%$##$##$ +&=$=:,,;>;,,;>;-======%$#$++##",
" XO@OO@+$$$$%%$%%&&&*&*=####$$#$ ++&@&&$&&$&$=&&&&$==&&$==@#++@@",
"             . . ...... .                                       ",
"$=&&$#$##@O+OOOO o+@++O+O+OO+O+OOOoOOOoOoooooooo .==*+*&**%&&%%$",
"@$=&&##$@@#O+O++ ++++#@#@@@@@+++OOoOOo+OOoOooooO ->->*;*&&*%%%%$",
"@&$@=$@#@#@++++O +@@@##@@##@#@+@O+++@#@@OO@+OOOo ->,,,,$&;*%&%%%",
"*#=&&@@O@@@@++++ ###@@#@#@@@+@@@++@#+@@O+@#@+OOo -;<>;:;;&;%&&%%",
"$=&&&###@@++++Oo.+#=##&###@@##@#@#@@@@O+@+++@O++ ->->>;;***&%&$%",
"%#$$$$#+@O@+O+O+ +$%#+#&$$#@+&###@@##@#@@@$@@o++ ->,=$&;***&&%=&",
"$$#$$@O+O@@++OoO $=;#%$=&&&+o&&$@++-@@#$$$&&@o+@ -;,;;;&;*&%%%$=",
"#$$$@O+O@+++++OO %%=%$$#==&o&&$+o--$#$&*;&&@o+## -;,>;,=*&&#==&$",
"=&$@###+++++O+Oo $=;$%$$%%$%+o&*=;*&$##$#$#+#### =,,;,&***&$$$==",
"$=@@@O+++@+O+OOO %;;;%%%;;;$%$%=*=&&&&$$$&=*=&$# *,<;;=;*&&%%&$$",
"&$O+O#@++++OooOO *;,:;&;,&=;;%=*=%=*=$&%=---#$$% =;,>-;**&%$$#=%",
"#=+O+#OO+OOOOOoo +*,;>$;;,;--,-----------%*%$$#% -,-;-;&*&&&&%$$",
"$@@OO+OOO+O+oOoo *>,>>=;;;;;;,,;;&*=*===--%%%$%% -;,,,$&;*%&%$%$",
"#@+@@O+O+++OOooo.=-<,-,,,%-*-,<;>;->>---%**--&%% -,<,;;;&;&&%%%%",
"##@#+@++++oOOooo.=>>;;>;;;;;;;----;*=;**&&&**-&& -,;;-***&*%%%%%",
"$#@@@@++O+OoOoOo .-------=*=----===**==*&***=&&& -=--****&&%&&%$",
"             ..X  o+@@@++OOOXXXX                 ..XXoooXX...   ",
" OO@O+@%@###$##$$%%&%**->>;==*$+ oooO+OOO@+@#@##O#@$$$&&>>;==*$-",
" OOO++@+@%#$$#%%&&&&%**&-;->->*; XoOoO+O@O@#@#$#@@$%%%;&;;->->*;",
" +OO++@+@@@$$-$--&&%%%&;=*->,<,, XXXOOO+@@@O@O##$$#%$%&&-*->,<,,",
" OO++@@@@@%@$$%$-&&%%&&-;;-;,><: XoOO++OO@@@@#O%$$%$%&%&;;-;,><:",
" O++++++++#@##$$$--&&;&;&;;;->>; XOoO++#O#@@#%*#$$%%$%**&;;;->>;",
" OO++++@@@@@$*;#$%--%-;;;&->,=$& XoOO+@@++@#%#;#$%-$%&**-&*;-;;=",
" OOO+@+@+@+$$%*#$$%%%$;;**-;,;;; XXOOO@+@#@$#$$$$--%$$$*&&;;%;,&",
" oOOOO@++#++$$##$%%$$;-$&;;;,;;, o+XXO@@@###$$#;#$%-$;-$&;;;,;;,",
" ooOOO++@#@+++##$#$$$$$*&&;;%;,& O+O+X@@@@#$$%*$$$--%$;;**-;,;;;",
" XoOO+@@++@#%#$$$$$$%&$$&&*;-;;= OO#@#@@@@@@$*;#$%-:%-;;;&->,;;&",
" XOoO+++++@@#%%$#$%%$%&&&&=;*;-; OO+#@$####@##$$$-:&&;&;&;;;->>;",
" XoO+++OO+@@@#O%$$%$%&%&&&-$-;-; XO@@@@@@@%@$$%$-&&%%&&-;;-;,><:",
" XXXOO++@@@O@O##$+#%$%&%&*-;$;,% XO@@#@$@@@$$-$--&&%%%&;=*->,<,,",
" XoOoO+O@+@#@#$#++$%%%&&&*--$$-$ XXOO@@#@%#$$#%%&&&&%**&-;->->*;",
" oooO++OO@+@#@#+O#+$$$&&&&--;$$+ XXXOOO@@###$##$$%%&%**->>;==*$-",
"                                                                ",
"&*&$$$&&>>;==*$- @@++#@==$&&==$&&&&=$&$&&$&&@&++ $$%%$#$%$%%%&&*",
"%%*%%%;&;;=>->*; ##++$#;;==;===-;>;,,;>;,,:;;=&+ $$$$%$$$%#%%&&%",
"$%%%$%&&=**>,<,, +@@@+#%#&***;>;,,*:,,*:$,,;:;=# $#####$$#%$%%&&",
"&&&$%&%&;;=;,><: @+OO$#@@&=*=*&&;;;=,=,;>;=%;;=+ ##$$$#%%%#$$%%$",
"$%&%$%**=;;;=>>; ++OO#+#$*=&&%%=*;&&;&;>;=%;;=$+ @@#@$$$@$%%$%%$",
"%$$$%&**&=*;&;;= O@+@#@##%%=*&&=*==*=*==*=;%%%+@ +##+#$##@$$%#%%",
"$%$%$$$*&&;;%;,& +O++OO#+###@$*=&&&&=&=$&&&$$#$O O@@@@###$$$$##$",
"%$$%$%$$&;;;,;;, +O@OO@@@#@#$#%%=*#$#$&&&#@$#+#O +@@#@@$@$@#####",
"%%$$%$%%**=;,;;; +OO+O@@O@##@#@#@#@@@###@#$##@#@ O+@@+@#@+#@@$$$",
"%##%%%%%%&&>,;;& OOO+OO@o@@@#@@@@@++@@+@@+#+#OO+ o@+O@+#+#@##$#$",
"$#%#$$$$%&%%;;%* O+O+++O+@++@+++@@@++@O+@@#@@@OO O+@O+@+#+@@@#@@",
"@##$$$##$$%$&;=% XOO+++OOOOOOO+O+OO++OO+O++O+O++ oo++OO+++#@##@#",
"@$#$$$#%%%%$%=;% XoOXOO+oOOOOOO+oOOooO+OO+oOOOoO OO+OO++@O@+@@+#",
"@#$@$$$#$%$$$&%% XXXoXoO+OoooooooOooOOoooOOOooOo ooOOO++OOO+++@+",
"                                                                "
};
