/* XPM */
static char *_70a66be863848ccb9d73f75a1e6b7c4odCztAfsN77BEoWr[] = {
/* columns rows colors chars-per-pixel */
"64 64 9 1 ",
"  c #382820",
". c #484010",
"X c #686030",
"o c #584840",
"O c #786860",
"+ c #888050",
"@ c #A8A070",
"# c #988880",
"$ c #C8C090",
/* pixels */
"               o               o               o               o",
"OOOOO ######o  oOOOOO ######o  oOOOOO ######o  oOOOOO ######o  o",
"Ooooo #OOOOOo  oOoooo #OOOOOo  oOoooo #OOOOOo  oOoooo #OOOOOo  o",
"Ooooo ooooooo  oOoooo ooooooo  oOoooo ooooooo  oOoooo ooooooo  o",
"Ooooo @+++.####oOoooo @+++.####oOoooo @+++.####oOoooo @+++.####o",
"      +XXX.#OOOo      +XXX.#OOOo      +XXX.#OOOo      +XXX.#OOOo",
"   OOo+XXX.#OOO    OOo+XXX.#OOO    OOo+XXX.#OOO    OOo+XXX.#OOO ",
"   Ooo+XXX.#OOO    Ooo+XXX.#OOO    Ooo+XXX.#OOO    Ooo+XXX.#OOO ",
"XXXXXo+XXX.#OOOoXXXXXo+XXX.#OOOoXXXXXo+XXX.#OOOoXXXXXo+XXX.#OOOo",
"$@@@Xo.....#OOOo$@@@Xo.....#OOOo$@@@Xo.....#OOOo$@@@Xo.....#OOOo",
"@+++X#Oo ooooooo@+++X#Oo ooooooo@+++X#Oo ooooooo@+++X#Oo ooooooo",
"@+++X#Oo #OO ##o@+++X#Oo #OO ##o@+++X#Oo #OO ##o@+++X#Oo #OO ##o",
"@+++X#Oo Ooo #Oo@+++X#Oo Ooo #Oo@+++X#Oo Ooo #Oo@+++X#Oo Ooo #Oo",
"@+++X#Oo Ooo #Oo@+++X#Oo Ooo #Oo@+++X#Oo Ooo #Oo@+++X#Oo Ooo #Oo",
"@+++X#Oo Ooo #Oo@+++X#Oo Ooo #Oo@+++X#Oo Ooo #Oo@+++X#Oo Ooo #Oo",
"Oooooooo     oooOooooooo     oooOooooooo     oooOooooooo     ooo",
"               o               o               o               o",
"OOOOO ######o  oOOOOO ######o  oOOOOO ######o  oOOOOO ######o  o",
"Ooooo #OOOOOo  oOoooo #OOOOOo  oOoooo #OOOOOo  oOoooo #OOOOOo  o",
"Ooooo ooooooo  oOoooo ooooooo  oOoooo ooooooo  oOoooo ooooooo  o",
"Ooooo @+++.####oOoooo @+++.####oOoooo @+++.####oOoooo @+++.####o",
"      +XXX.#OOOo      +XXX.#OOOo      +XXX.#OOOo      +XXX.#OOOo",
"   OOo+XXX.#OOO    OOo+XXX.#OOO    OOo+XXX.#OOO    OOo+XXX.#OOO ",
"   Ooo+XXX.#OOO    Ooo+XXX.#OOO    Ooo+XXX.#OOO    Ooo+XXX.#OOO ",
"XXXXXo+XXX.#OOOoXXXXXo+XXX.#OOOoXXXXXo+XXX.#OOOoXXXXXo+XXX.#OOOo",
"$@@@Xo.....#OOOo$@@@Xo.....#OOOo$@@@Xo.....#OOOo$@@@Xo.....#OOOo",
"@+++X#Oo ooooooo@+++X#Oo ooooooo@+++X#Oo ooooooo@+++X#Oo ooooooo",
"@+++X#Oo #OO ##o@+++X#Oo #OO ##o@+++X#Oo #OO ##o@+++X#Oo #OO ##o",
"@+++X#Oo Ooo #Oo@+++X#Oo Ooo #Oo@+++X#Oo Ooo #Oo@+++X#Oo Ooo #Oo",
"@+++X#Oo Ooo #Oo@+++X#Oo Ooo #Oo@+++X#Oo Ooo #Oo@+++X#Oo Ooo #Oo",
"@+++X#Oo Ooo #Oo@+++X#Oo Ooo #Oo@+++X#Oo Ooo #Oo@+++X#Oo Ooo #Oo",
"Oooooooo     oooOooooooo     oooOooooooo     oooOooooooo     ooo",
"               o               o               o               o",
"OOOOO ######o  oOOOOO ######o  oOOOOO ######o  oOOOOO ######o  o",
"Ooooo #OOOOOo  oOoooo #OOOOOo  oOoooo #OOOOOo  oOoooo #OOOOOo  o",
"Ooooo ooooooo  oOoooo ooooooo  oOoooo ooooooo  oOoooo ooooooo  o",
"Ooooo @+++.####oOoooo @+++.####oOoooo @+++.####oOoooo @+++.####o",
"      +XXX.#OOOo      +XXX.#OOOo      +XXX.#OOOo      +XXX.#OOOo",
"   OOo+XXX.#OOO    OOo+XXX.#OOO    OOo+XXX.#OOO    OOo+XXX.#OOO ",
"   Ooo+XXX.#OOO    Ooo+XXX.#OOO    Ooo+XXX.#OOO    Ooo+XXX.#OOO ",
"XXXXXo+XXX.#OOOoXXXXXo+XXX.#OOOoXXXXXo+XXX.#OOOoXXXXXo+XXX.#OOOo",
"$@@@Xo.....#OOOo$@@@Xo.....#OOOo$@@@Xo.....#OOOo$@@@Xo.....#OOOo",
"@+++X#Oo ooooooo@+++X#Oo ooooooo@+++X#Oo ooooooo@+++X#Oo ooooooo",
"@+++X#Oo #OO ##o@+++X#Oo #OO ##o@+++X#Oo #OO ##o@+++X#Oo #OO ##o",
"@+++X#Oo Ooo #Oo@+++X#Oo Ooo #Oo@+++X#Oo Ooo #Oo@+++X#Oo Ooo #Oo",
"@+++X#Oo Ooo #Oo@+++X#Oo Ooo #Oo@+++X#Oo Ooo #Oo@+++X#Oo Ooo #Oo",
"@+++X#Oo Ooo #Oo@+++X#Oo Ooo #Oo@+++X#Oo Ooo #Oo@+++X#Oo Ooo #Oo",
"Oooooooo     oooOooooooo     oooOooooooo     oooOooooooo     ooo",
"               o               o               o               o",
"OOOOO ######o  oOOOOO ######o  oOOOOO ######o  oOOOOO ######o  o",
"Ooooo #OOOOOo  oOoooo #OOOOOo  oOoooo #OOOOOo  oOoooo #OOOOOo  o",
"Ooooo ooooooo  oOoooo ooooooo  oOoooo ooooooo  oOoooo ooooooo  o",
"Ooooo @+++.####oOoooo @+++.####oOoooo @+++.####oOoooo @+++.####o",
"      +XXX.#OOOo      +XXX.#OOOo      +XXX.#OOOo      +XXX.#OOOo",
"   OOo+XXX.#OOO    OOo+XXX.#OOO    OOo+XXX.#OOO    OOo+XXX.#OOO ",
"   Ooo+XXX.#OOO    Ooo+XXX.#OOO    Ooo+XXX.#OOO    Ooo+XXX.#OOO ",
"XXXXXo+XXX.#OOOoXXXXXo+XXX.#OOOoXXXXXo+XXX.#OOOoXXXXXo+XXX.#OOOo",
"$@@@Xo.....#OOOo$@@@Xo.....#OOOo$@@@Xo.....#OOOo$@@@Xo.....#OOOo",
"@+++X#Oo ooooooo@+++X#Oo ooooooo@+++X#Oo ooooooo@+++X#Oo ooooooo",
"@+++X#Oo #OO ##o@+++X#Oo #OO ##o@+++X#Oo #OO ##o@+++X#Oo #OO ##o",
"@+++X#Oo Ooo #Oo@+++X#Oo Ooo #Oo@+++X#Oo Ooo #Oo@+++X#Oo Ooo #Oo",
"@+++X#Oo Ooo #Oo@+++X#Oo Ooo #Oo@+++X#Oo Ooo #Oo@+++X#Oo Ooo #Oo",
"@+++X#Oo Ooo #Oo@+++X#Oo Ooo #Oo@+++X#Oo Ooo #Oo@+++X#Oo Ooo #Oo",
"Oooooooo     oooOooooooo     oooOooooooo     oooOooooooo     ooo"
};
