/* XPM */
static char *_10ddfa811014fc2dba0c481b2bae9bdrY2mAQGgDvMH2VlJ[] = {
/* columns rows colors chars-per-pixel */
"64 64 3 1 ",
"  c #3B444B",
". c #768896",
"X c #B1CCE1",
/* pixels */
"XXXX.XXXXXX.XXXXXXXX.XXXXXX.XXXXXXXX.XXXXXX.XXXXXXXX.XXXXXX.XXXX",
".... X..... X....... X..... X....... X..... X....... X..... X...",
".... X..... X....... X..... X....... X..... X....... X..... X...",
"     .      .        .      .        .      .        .      .   ",
"XXXXXXX.XXXXXXX.XXXXXXX.XXXXXXX.XXXXXXX.XXXXXXX.XXXXXXX.XXXXXXX.",
"X...... X...... X...... X...... X...... X...... X...... X...... ",
"X...... X...... X...... X...... X...... X...... X...... X...... ",
".       .       .       .       .       .       .       .       ",
"XXXX.XXXXXX.XXXXXXXX.XXXXXX.XXXXXXXX.XXXXXX.XXXXXXXX.XXXXXX.XXXX",
".... X..... X....... X..... X....... X..... X....... X..... X...",
".... X..... X....... X..... X....... X..... X....... X..... X...",
"     .      .        .      .        .      .        .      .   ",
"XXXXXXX.XXXXXXX.XXXXXXX.XXXXXXX.XXXXXXX.XXXXXXX.XXXXXXX.XXXXXXX.",
"X...... X...... X...... X...... X...... X...... X...... X...... ",
"X...... X...... X...... X...... X...... X...... X...... X...... ",
".       .       .       .       .       .       .       .       ",
"XXXX.XXXXXX.XXXXXXXX.XXXXXX.XXXXXXXX.XXXXXX.XXXXXXXX.XXXXXX.XXXX",
".... X..... X....... X..... X....... X..... X....... X..... X...",
".... X..... X....... X..... X....... X..... X....... X..... X...",
"     .      .        .      .        .      .        .      .   ",
"XXXXXXX.XXXXXXX.XXXXXXX.XXXXXXX.XXXXXXX.XXXXXXX.XXXXXXX.XXXXXXX.",
"X...... X...... X...... X...... X...... X...... X...... X...... ",
"X...... X...... X...... X...... X...... X...... X...... X...... ",
".       .       .       .       .       .       .       .       ",
"XXXX.XXXXXX.XXXXXXXX.XXXXXX.XXXXXXXX.XXXXXX.XXXXXXXX.XXXXXX.XXXX",
".... X..... X....... X..... X....... X..... X....... X..... X...",
".... X..... X....... X..... X....... X..... X....... X..... X...",
"     .      .        .      .        .      .        .      .   ",
"XXXXXXX.XXXXXXX.XXXXXXX.XXXXXXX.XXXXXXX.XXXXXXX.XXXXXXX.XXXXXXX.",
"X...... X...... X...... X...... X...... X...... X...... X...... ",
"X...... X...... X...... X...... X...... X...... X...... X...... ",
".       .       .       .       .       .       .       .       ",
"XXXX.XXXXXX.XXXXXXXX.XXXXXX.XXXXXXXX.XXXXXX.XXXXXXXX.XXXXXX.XXXX",
".... X..... X....... X..... X....... X..... X....... X..... X...",
".... X..... X....... X..... X....... X..... X....... X..... X...",
"     .      .        .      .        .      .        .      .   ",
"XXXXXXX.XXXXXXX.XXXXXXX.XXXXXXX.XXXXXXX.XXXXXXX.XXXXXXX.XXXXXXX.",
"X...... X...... X...... X...... X...... X...... X...... X...... ",
"X...... X...... X...... X...... X...... X...... X...... X...... ",
".       .       .       .       .       .       .       .       ",
"XXXX.XXXXXX.XXXXXXXX.XXXXXX.XXXXXXXX.XXXXXX.XXXXXXXX.XXXXXX.XXXX",
".... X..... X....... X..... X....... X..... X....... X..... X...",
".... X..... X....... X..... X....... X..... X....... X..... X...",
"     .      .        .      .        .      .        .      .   ",
"XXXXXXX.XXXXXXX.XXXXXXX.XXXXXXX.XXXXXXX.XXXXXXX.XXXXXXX.XXXXXXX.",
"X...... X...... X...... X...... X...... X...... X...... X...... ",
"X...... X...... X...... X...... X...... X...... X...... X...... ",
".       .       .       .       .       .       .       .       ",
"XXXX.XXXXXX.XXXXXXXX.XXXXXX.XXXXXXXX.XXXXXX.XXXXXXXX.XXXXXX.XXXX",
".... X..... X....... X..... X....... X..... X....... X..... X...",
".... X..... X....... X..... X....... X..... X....... X..... X...",
"     .      .        .      .        .      .        .      .   ",
"XXXXXXX.XXXXXXX.XXXXXXX.XXXXXXX.XXXXXXX.XXXXXXX.XXXXXXX.XXXXXXX.",
"X...... X...... X...... X...... X...... X...... X...... X...... ",
"X...... X...... X...... X...... X...... X...... X...... X...... ",
".       .       .       .       .       .       .       .       ",
"XXXX.XXXXXX.XXXXXXXX.XXXXXX.XXXXXXXX.XXXXXX.XXXXXXXX.XXXXXX.XXXX",
".... X..... X....... X..... X....... X..... X....... X..... X...",
".... X..... X....... X..... X....... X..... X....... X..... X...",
"     .      .        .      .        .      .        .      .   ",
"XXXXXXX.XXXXXXX.XXXXXXX.XXXXXXX.XXXXXXX.XXXXXXX.XXXXXXX.XXXXXXX.",
"X...... X...... X...... X...... X...... X...... X...... X...... ",
"X...... X...... X...... X...... X...... X...... X...... X...... ",
".       .       .       .       .       .       .       .       "
};
