/* XPM */
static char *_b0b4e86f51d4c27c108f9605ab293d9gW0Kg8cUn2FGvn1t[] = {
/* columns rows colors chars-per-pixel */
"64 64 18 1 ",
"  c #382C14",
". c #4C0000",
"X c #640000",
"o c #700000",
"O c #7C0000",
"+ c #483818",
"@ c #5C4020",
"# c #744C28",
"$ c #880000",
"% c #980000",
"& c #A40000",
"* c #B00000",
"= c #BC0000",
"- c #C80000",
"; c #D40000",
": c #E00000",
"> c #EC0000",
", c #FC0000",
/* pixels */
"+                               +++++++ @@@@@@@@@@++++++++++++  ",
".$$$$&&&&&o&&&. .$$X&&&X&&&&$&.+.*%*%%&====&=&.@.&&O$O&&&===**. ",
".X*==*===:==:&. .$=*========-$.+.*-;;*-:::-:,=.@.$*:&**::::;>%. ",
".$$$o&$$&&&&=&. .$X$$$$o$&&$*%.+.%%*$$&=====:&.@.=$=O=$&==**-%. ",
".XX$o$$&$$o$*$. .$X$$$$o$$$o=O.+.%%o$&$$$&$&-O.#.O$$$O$O$Oo*-o. ",
".oo$o$$$XXXX*X. .$$$$$oXo$X%=O.+.%o$$$$&$$&$-O.@.$$O&$$$Oo%*%o. ",
".$o$ooXX$$$X$o. .XXXoo$$$$%O%O.+.$&$$O$$$&$&-O.@.&$$O$$ooOooOo. ",
"............... ...............+.&$$$$$&$$&$-O.@............... ",
"+                       ++@++++ .&$O$O$$$&$&-O.@@@@@@++++++++   ",
"&$$&o$. .&$&$$&&&&&$&$.+.*****.#.&$$$&$O$$&$-O.@.$==%*.+.%%*&$$&",
"===::&. .&=--**---*->&.+.%-*:*.#.&$O$$$$$&$&-O.@.=;:,*.+.%=--**-",
"o$$&=$. .$$&$o$&&&&&-%.+.*%%=&.@.&$$$$$$$$&$-O.@.$%%-o.+.%$o$$&&",
"o$o$=o. .$$oo$ooo$o$=o.@.*Oo*O.@.$$$&O&$O$$&=$.#.OO%*O.+.ooo$o$o",
"ooX$:$. .$ooooo$oo$O=o.+.Oo$*O.@.$$$$$O$$$&$=$.@.OOO*O.+.oo$oooo",
"XooX=o. .$$ooXooo$O%=o.+.o$$%$.#.&$$$$$$O$$O=$.+.%Oo*O. .ooooooo",
"....... .$ooooo$oO%O=o.+.......@...............+....... ........",
"+       .$oXoXooO%O%=o. @@@@@@@#@#@@@@@@@@@@@++++++++    ++     ",
".***&&.+.$ooo$ooOO%O=o.@.$==&=.@.$===&====O=**.+.*%*$$&&&&&$&$. ",
".%-&;*.+.$oXooOOO%O%=X.@.=;>,=.@.=;:---::::;,O.+.*---**---*->&. ",
".*$$=$. .$oooOOOOO%O*O.@.$&&;O.@.$O$&&&O&&%*;*.+.%$&$o$&&&&&-$. ",
".&oo%X. .ooo%o%OoOO$=$.#.$$&=$.@.O$OO&&OOo%O;*.+.$$oo$ooo$o$*X.+",
".ooo%X. .ooOOOoOOO$$=$.@.$$$=$.@.O&O$O$OoooO%O.+.$ooooo$oo$o*X. ",
".oooOo.+.$OOOOOOoo$O=$.@.&$O=$.@.O&$$&$OOooO$O. .$$ooXooo$o$*X. ",
"....... ...............@.......@............... .$ooooo$oo$o*X. ",
"+       +++++++ @@@@@@@@@@@@@@@@@#@@@++++++++   .$oXoXooo$o$*X. ",
"&$&&&o.@.*****o====&==.@.=&===&===O=*o.+.***&&.+.$ooo$oXoo$o*X. ",
"----:&.+.*;;;*::::-:,-.@.=;;;;;;;;;->O.+.%-&;*.+.$oXooooo$o$*X. ",
"X&$o&%.@.*%O&$$&&=&=-O.@.$&=&&===&o*=O.+.*$$=$. .$oooooooo$o*X. ",
"X$$$*O.+.OOo$$$&&$&&*&.#.&$&&$&$=ooo*o.+.&oo%X. .ooo$X$oXoo$&o.+",
"Xoo%&O.+.%X$$$$&$$&$*&.@.O$$$$$OOoo%*o.+.ooo%X. .oooooXooo$o&o. ",
"oXoO$O.+.o$$&$$$&$OO&O.@.$$$&&$OOooo&o. .oooOo.+.$ooooooXooX&o. ",
".......@...............@............... ....... ............... ",
"@+@@@+@ #@#@@@@##@#@#@@@@@@@#++++++++                    ++  ++ ",
".***%*&===&===.#.$==&=.@.=&=%%*****%&$. .o&&$&. .&&&&&&&&&&$&&. ",
".%=;=*::-:::>=.@.=;>,=.@.=;;;==;;;=->&. .&=;>&. .$*=*--*----:$.+",
".%%o&==&===-;&.#.$&&;O.@.&%*%O%***&&-$. .o$$=X.+.Xoo$$$$$$$&&%.+",
".%OX$$&$&=&*-&.#.$$&=$.#.%%OO%OOO$o$*X.+.oo$&o. .Xoo$$$$$o&o*o. ",
".o$&$&&$$$$$*&.#.$$$=$.@.%OOOOO%oo$o*X. .ooo&o.+.o$o$Xooo$$o*O. ",
".o$$&$$$$$O$&&.#.&$O=$.+.%%OOoOoo$o$*X. .$oX&o. .oooooo$oXO%$O. ",
"...............@.......+.%OOOOo$oo$o*X. ....... ............... ",
"#@@@@@@@@@@@@@@@@@@@@+++.%OoOXooo$o$*X.  +       +  +++ @+@@@@++",
"&&====.@.&==========O%.+.%OOo$oXoo$o*X. .&&&oo&&&&&&&&.@.%o%%O$o",
"=;;;,-.@.O;=--=;;::;:%.+.%OXooooo$o$*X. .$=&==-----*;*.@.&==&---",
"O&&&*O.@.$$=$&$&$=%*=%.+.%oooooooo$o*X. .&$$$&oo$$$&=%.+.O%%$O&o",
"OO&&;O.@.$&$&$$$$%O%=O.+.ooo$X$oXoo$&o.+.&oooo$ooooo&o.+.Ooo&OOo",
"OOO&*$.@.$$$$$$$OOOo=%.+.oooooXooo$o&o. .ooo$oooo$oo&o.+.oX&O$Oo",
"OOOO%O.@.$O$O$OoOOOO%o. .$ooooooXooX&o. .oooooo$XXoO$O.@.o$&$$Oo",
".......@............... ............... ...............+........",
"###@@@@@@@@@@+++@++++                           ++@@+@@ ##@@##@+",
".=&=&&=====&*%.+.***$&&&&&$&&&. .&&&&&.+.&$&$$&****%*%.@.$==&=.+",
".=;::--:::-;,*.+.*=-***--**-;&. .$=&;*.+.&=--*=;;;=;,&.@.=;>,=.+",
".&&=&$&===**;%.+.*o$o$o$$$$$*$. .&$$=$. .$$&$O%*****-&.@.$&&;O.+",
".&&$$&$$$%O%=o.@.$o$ooooooo$$o. .&oo%X. .$$oO%OOO%O$-O.#.$$&=$.+",
".&$$$$$&OO%O=o.+.oooooXoooXo*o. .ooo%X. .$oOOOO%OO$$-O.@.$$$=$.+",
".&&$$O$OO%O%=o. .$oXooXoooooOo. .oooOo.+.$%OOoOOO$$&-O.@.&$O=$.+",
".&$$$$O%OO%O=o. ............... ....... .%OOOOO%o$&$-O.@.......+",
".&$O$oOOO%O%=X.                         .%OoOoOo$&$&-O.@##@@@@@+",
".&$$O%OoOO%O*X. .o&&$&. .$$&&&&$&&&&&$.+.%OOO%oO$$&$-O.@.o&&$&. ",
".&$oOOOOO%O$*X. .&=;>&. .o-*-*-*-*-->$.+.%OoOo$$$&$&-O.@.&=;>&. ",
".&OOOOOOOO$o*X. .o$$=X. .$$$oo$o$$&$=%.+.%OOo$$$$$&$-O.@.o$$=X.+",
".OOO%o%Oooo$&o.+.oo$&o. .X$$$$$$o$o$=%.+.OOo&O&$O$$&=$.#.oo$&o. ",
".OOOOOoOoo$o&o. .ooo&o. .$ooo$o$o$o%*O.+.Oo$$$O$$$&$=$.@.ooo&o.+",
".$ooooooXooX&o. .$oX&o. .XoXooX$$XOO$O.+.$OOOOOOoOOo*O.+.$oX&o. ",
"............... ....... ............... ............... .......+"
};
