/* XPM */
static char *f38dbb77ec72417ebebcca276f30d513Fg1iKg9OCBBAt5pg[] = {
/* columns rows colors chars-per-pixel */
"64 64 7 1 ",
"  c #7B5E4D",
". c #6C5656",
"X c #8E715D",
"o c #9C7C6D",
"O c #A68467",
"+ c #AA916D",
"@ c #C6A97F",
/* pixels */
"Xoooo+.XX.+oXoooXoooo+.XX.+oXoooXoooo+.XX.+oXoooXoooo+.XX.+oXooo",
"ooOo@.oooo.@ooooooOo@.oooo.@ooooooOo@.oooo.@ooooooOo@.oooo.@oooo",
"ooo@.oooXoo.@oOoooo@.oooXoo.@oOoooo@.oooXoo.@oOoooo@.oooXoo.@oOo",
"oo@ oooooooo @oooo@ oooooooo @oooo@ oooooooo @oooo@ oooooooo @oo",
"o@ oooooooooo @oo@ oooooooooo @oo@ oooooooooo @oo@ oooooooooo @o",
"+.oooooooooooo.++.oooooooooooo.++.oooooooooooo.++.oooooooooooo.+",
" oooOoooooooooo. oooOoooooooooo. oooOoooooooooo. oooOoooooooooo.",
".oooooooXooOoooX.oooooooXooOoooX.oooooooXooOoooX.oooooooXooOoooX",
".OooooooooooooOX.OooooooooooooOX.OooooooooooooOX.OooooooooooooOX",
" +oooooooooooo+. +oooooooooooo+. +oooooooooooo+. +oooooooooooo+.",
"o.@ooXooooooo@.OO.@ooXooooooo@.oo.@ooXooooooo@.OO.@ooXooooooo@.o",
"oo @oooooooo@ OOOO @oooooooo@ oooo @oooooooo@ OOOO @oooooooo@ oo",
"ooo @oooooo@ OOOOOO @oooooo@ oooooo @oooooo@ OOOOOO @oooooo@ ooo",
"Xooo.@Oooo@.OOOOOOOO.@Oooo@.ooooXooo.@Oooo@.OOOOOOOO.@Oooo@.oooo",
"ooooo.+@@+.OOOOOOOOOO.+@@+.oooXoooooo.+@@+.OOOOOOOOOO.+@@+.oooXo",
"oooOoO .. OOOOOOOOOOOO .. OooooooooOoO .. OOOOOOOOOOOO .. Oooooo",
"Xoooo+.XX.+OOOOOOOOOO+.XX.+oXoooXoooo+.XX.+OOOOOOOOOO+.XX.+oXooo",
"ooOo@.oooo.@OOOOOOOO@.oooo.@ooooooOo@.oooo.@OOOOOOOO@.oooo.@oooo",
"ooo@.oooXoo.@OOOOOO@.oooXoo.@oOoooo@.oooXoo.@OOOOOO@.oooXoo.@oOo",
"oo@ oooooooo @OOOO@ oooooooo @oooo@ oooooooo @OOOO@ oooooooo @oo",
"o@ oooooooooo @OO@ oooooooooo @oo@ oooooooooo @OO@ oooooooooo @o",
"+.oooooooooooo.++.oooooooooooo.++.oooooooooooo.++.oooooooooooo.+",
" oooOoooooooooo. oooOoooooooooo. oooOoooooooooo. oooOoooooooooo.",
".oooooooXooOoooo.oooooooXooOoooX.oooooooXooOoooo.oooooooXooOoooX",
".OooooooooooooOo.OooooooooooooOX.OooooooooooooOo.OooooooooooooOX",
" +oooooooooooo+. +oooooooooooo+. +oooooooooooo+. +oooooooooooo+.",
"o.@ooXooooooo@.oo.@ooXooooooo@.oo.@ooXooooooo@.oo.@ooXooooooo@.o",
"oo @oooooooo@ oooo @oooooooo@ oooo @oooooooo@ oooo @oooooooo@ oo",
"ooo @oooooo@ oooooo @oooooo@ oooooo @oooooo@ oooooo @oooooo@ ooo",
"Xooo.@Oooo@.ooooXooo.@Oooo@.ooooXooo.@Oooo@.ooooXooo.@Oooo@.oooo",
"ooooo.+@@+.oooXoooooo.+@@+.oooXoooooo.+@@+.oooXoooooo.+@@+.oooXo",
"oooOoO .. OooooooooOoO .. OooooooooOoO .. OooooooooOoO .. Oooooo",
"Xoooo+.XX.+oXoooXoooo+.XX.+oXoooXoooo+.XX.+oXoooXoooo+.XX.+oXooo",
"ooOo@.oooo.@ooooooOo@.oooo.@ooooooOo@.oooo.@ooooooOo@.oooo.@oooo",
"ooo@.oooXoo.@oOoooo@.oooXoo.@oOoooo@.oooXoo.@oOoooo@.oooXoo.@oOo",
"oo@ oooooooo @oooo@ oooooooo @oooo@ oooooooo @oooo@ oooooooo @oo",
"o@ oooooooooo @oo@ oooooooooo @oo@ oooooooooo @oo@ oooooooooo @o",
"+.oooooooooooo.++.oooooooooooo.++.oooooooooooo.++.oooooooooooo.+",
" oooOoooooooooo. oooOoooooooooo. oooOoooooooooo. oooOoooooooooo.",
".oooooooXooOoooX.oooooooXooOoooX.oooooooXooOoooX.oooooooXooOoooX",
".OooooooooooooOX.OooooooooooooOX.OooooooooooooOX.OooooooooooooOX",
" +oooooooooooo+. +oooooooooooo+. +oooooooooooo+. +oooooooooooo+.",
"o.@ooXooooooo@.OO.@ooXooooooo@.oo.@ooXooooooo@.OO.@ooXooooooo@.o",
"oo @oooooooo@ OOOO @oooooooo@ oooo @oooooooo@ OOOO @oooooooo@ oo",
"ooo @oooooo@ OOOOOO @oooooo@ oooooo @oooooo@ OOOOOO @oooooo@ ooo",
"Xooo.@Oooo@.OOOOOOOO.@Oooo@.ooooXooo.@Oooo@.OOOOOOOO.@Oooo@.oooo",
"ooooo.+@@+.OOOOOOOOOO.+@@+.oooXoooooo.+@@+.OOOOOOOOOO.+@@+.oooXo",
"oooOoO .. OOOOOOOOOOOO .. OooooooooOoO .. OOOOOOOOOOOO .. Oooooo",
"Xoooo+.XX.+OOOOOOOOOO+.XX.+oXoooXoooo+.XX.+OOOOOOOOOO+.XX.+oXooo",
"ooOo@.oooo.@OOOOOOOO@.oooo.@ooooooOo@.oooo.@OOOOOOOO@.oooo.@oooo",
"ooo@.oooXoo.@OOOOOO@.oooXoo.@oOoooo@.oooXoo.@OOOOOO@.oooXoo.@oOo",
"oo@ oooooooo @OOOO@ oooooooo @oooo@ oooooooo @OOOO@ oooooooo @oo",
"o@ oooooooooo @OO@ oooooooooo @oo@ oooooooooo @OO@ oooooooooo @o",
"+.oooooooooooo.++.oooooooooooo.++.oooooooooooo.++.oooooooooooo.+",
" oooOoooooooooo. oooOoooooooooo. oooOoooooooooo. oooOoooooooooo.",
".oooooooXooOoooo.oooooooXooOoooX.oooooooXooOoooo.oooooooXooOoooX",
".OooooooooooooOo.OooooooooooooOX.OooooooooooooOo.OooooooooooooOX",
" +oooooooooooo+. +oooooooooooo+. +oooooooooooo+. +oooooooooooo+.",
"o.@ooXooooooo@.oo.@ooXooooooo@.oo.@ooXooooooo@.oo.@ooXooooooo@.o",
"oo @oooooooo@ oooo @oooooooo@ oooo @oooooooo@ oooo @oooooooo@ oo",
"ooo @oooooo@ oooooo @oooooo@ oooooo @oooooo@ oooooo @oooooo@ ooo",
"Xooo.@Oooo@.ooooXooo.@Oooo@.ooooXooo.@Oooo@.ooooXooo.@Oooo@.oooo",
"ooooo.+@@+.oooXoooooo.+@@+.oooXoooooo.+@@+.oooXoooooo.+@@+.oooXo",
"oooOoO .. OooooooooOoO .. OooooooooOoO .. OooooooooOoO .. Oooooo"
};
