/* XPM */
static char *d0c34df91ff84567c7e96567e6ee70f7B8HNePcI6gyzt7EL[] = {
/* columns rows colors chars-per-pixel */
"64 64 9 1 ",
"  c #2C2C2C",
". c gray22",
"X c #484848",
"o c gray33",
"O c #646464",
"+ c gray44",
"@ c #7C7C7C",
"# c gray55",
"$ c #989898",
/* pixels */
" X   XXXXXXXXXX XXX      X XXX X   XXXXXXXXXX XXX      X XXX XXX",
"..X..XXXXXXXXXXXXXO...X.XOXXX...X.XXXXXXXXXXXXXXO...X.XX..XXXXXX",
"XXOOOXXX...X.XOOOOOOX.OO@XOO@@@O@O@OOOOXXXOOOOOOOOX.O.OOXXXXXXXX",
"OOOOXOO@@@O@O@XOOOOOOOOOOXXXOXOOOOOOOOXXXXOOXOOOOOOOOOOOOOXXXX.X",
"@X@@XXXOXOOOOOOOOOOOOXOOOXXOXOOOOOOOOOXOo++#@@@+@@OXOO@@@@X@@@@@",
"OOOOXXOXOOOOOOOOOOOOOXXOO.XXXXOooOOXOXXXOXOOO+++@@@+o++OOOOOOOOO",
"OOOO.XXXXOooOOOOOXOOOOOXOOOOOOOO@OXXXXXXXOO+++++@@+++oOOOOOOOOOO",
"OOOO.XXXXOooOOOOXOXOOOOXOOOOOOOooXXX..X.OOOOOOXOXOOOOXOOOOOOOOOO",
"o...XO .XXXOOOXX...XXXX.O.X....oX.XXX.XXXOOOXX...XXXX.OXXo...XO ",
"XXXXXO@O@@.XXX@@@@@X@@@@@X.OOoOXXO@O@OX@#XXX@@@@@X@@@#@o.OOoOXOO",
"X.XXXO+o+OXXXXXOOOO.OOOOOO.OooXOXOOOO+++@XXXXOOOO.OOOO@+.OooXO.X",
"OXOOXoO+++XXXOOOOOOOOOOOOO.oXXXXOOOXO+O+#XXOOOOOO@O@O+@O.oXXXX.X",
"OOOX..OOO+X.XoOooOOOOOooOO...X.OOOO.OOO++.XoOoo+@@++OoOO...X.XOO",
"OOOOOOOOOXO.XooooooooooOOOOXXXXOOOOOOOOXO.XoooOooooooOOOOXXXXOOO",
"OOOO.OOOOOX..X..XX.X..O....X.XXOOO.OOOOOX..X..Xo.X..O....X.XXX@X",
"OOOXO.X@O@@X@@@@@@X........XXXXXXXXXX@O@@X@@@@@@Xo@OX@#$$+OoOXOO",
".XXOO.OOXOOOOOOOOOXO@XO@O@X@@@O@@@O.O+o+O++OOOOOXoO+++@@@O@@XX+O",
"XXOOO..OOOOOOOOOOOXOOOOOOOOOOXOOOO.X.O+++@@@@@OOXOO+O+#@+Oo++XOO",
"OoOOO.OOOOOOOOOOOOXOOOOOOOOOXOOOOOXXOOOO++OOOOOOXOOOO++++O+OOXXX",
"..XoX.OOOOXOXOOOOOXOOOOOOOOOXXOOOOX.OOOOXOXOOOOOXOXOXO+OXO.+.XXO",
"...X..XOX..XXXXXXXOXX.XXXX.X.XXXX...XOX..XXXXXXXOXXXX.XXXXOX...O",
"OXO..X.OOOOOOO.XOOOOOOOO..X@O@@O@@@@oOOOOOOO.XOOOOO@@@XXXX...XOX",
"O@O@OX@#OOOOOOOXOO.OO.O.OOO+o++o+OO+@OOOOOOOOXO+o@@XO.+XO@##@oOO",
"OOOO+++@OOOOOOXXOOOO.X.OOO.O++O++++O+OOOOOOOooOO+O.X.++X+++o+@OO",
"OOXO+O+#OOOO..XXOOOXO..OXXOOOOOOO++o+oOOOO..oo+OOXO..OX.OOO+O+OO",
"OO.OOO++.X..X...OX.OXOXXXOOOOOOXOOOooX.X..o...OX.OXOXXX.OOoXo+oO",
"XXXX.X.O.XXXO@O@OX@@@@@OOOXOOOOOXO@O@OX@#XO@O@OX@#$$$++.OO.oooX.",
"oOOXOO.OO...OOOOOOOOOOOOOOOOOOO++OOOO+++@.OOOO+++@@@O++OOOOOOOOO",
"oOOOOO.OOO..OOXOOOOOOOXO.OOOOXOOOOOXO+O+#.OOXO+O+#@+XO.OOOOXOOOO",
"ooOOOXXXOOO.OO.OOOOOOOXO..OOO.OoOOO.OOO++.OO.OOO++++XO..OOO.OOOO",
"OXXX...X.XO.X......XXXXO.OOOOOOOOOXOXOOXO.X......XXXXO.OOOOOOO.O",
"XOO@@@O@O@XOOOOOOOOXXOO@@@O@O@@OOOOXOOOOo##@@@@OOXXOO@@@O@O@@XOO",
"XXXOXOOOOOOOOOOOOOOXXXXOXOOOOOOOOOOOOOOXOOOOOOOOOXXXXOXOOOOOOXOO",
"XXOXOOOOOOXOOOOOOXXOXXOXOOOOOOOOOOOoOXXoXOOOOOOXXOXXOXOOOOOOO.OX",
".XXXXOooOO.OOOOOOXXXXXXXXOOOOOOooOo..X.X.OOOOOOXXXXXXXXOOOOOO.XX",
"..XX..OXXX...X.XXXXOX...XXXXX.XOXXX...X.XXXXO.XXXOX...XXXXX.X.X ",
"X.O.X.XOO@@@O@O@OOXO.XO...XOXXOXOO@@@O@O@XO.OOOOXO.XO...XOXXOXXX",
"OO..XXXXXOXOOOOOOOOXOXOO..OOXXOXXXOXOOOOOOOOOXOOOXOXOO..OOXXOOOO",
"OOOOoXXXOXOOOOOOOXOXXX.OXXOOOOOXXOXOOOOOOOOO.OOXOXXX.OXXOOOOOOOO",
"OOOOX..XXXXOooOOOXXXXOO.OOO.XXO.XXXXOooOOOO.XXOXXXXOO.OOO.XXOOOO",
"OXOOX....XXXXXXXXXXX.OOOOXXXXXOXOOX....XXXXXXXXXXX.OOO+ooooo+oOX",
"O@O@OX@#X@@@O@@@O.OOoOXOOOOOOOOOXO..O@OX@#$$@@O.X..O@@####$$#@+#",
"OOOO+++@OOOXOOOO.XOOoOXOOXXOOOOOOOOOOO+O+++@OO.XXOO.XOOXXOOOOOOO",
"OOXO+O+#OOXOOOOOXXOooXOOOXXOOOOOOXO.OO+O+O++OOXXOOOO.OOXXOOOO..O",
"OO.OOO++OOXXOOOOX.oXXXXOOXXOOOOOXO..OOOO++++OOX.OOOOOOOXXOOOO.OO",
".X....XX.X.XXXX...XXXXXXXXXOOOOX....XX.X.XXXX...X.XX.XX.XOOOOOO ",
"X.O.XXXXXXX.OO@O@XOo++#@@@+@@OXOOo@@++XXXoOO@@@O@O@@O.OXXOOOOOO ",
"OOO...X.....XXOOOOXOXOOO+++@@@+o+XXXOo....XXOXOOOOOO.OXO.O@#@@@O",
"OO.X.XXX.XX.XOXOOOXXOO+++++@@+++oX.XXX.XX.XOXOOOOOOO.OO.OOOOOOXO",
"OOXoOoXXXOX.XXXOOO.OOOOOOXOXOOOOXoOoXXXOX.XXOOOOOOOOXOOOOOOOOXOO",
"OOOOOOo........XXXXXXX.oX.XXX.XXXOOOoOOO.oooOOOOOoooooO.OOOOOXXO",
"OOOOOooO@XO@O@X@@@O@@@OXXO@O@OX@#XOooOOOOOOOOOOOOOOOOOOOOOOOOO.X",
"OOOOOOOOOOOOOOOOOXOOOOXOXOOOO+++@XOOOOOXO.O..OXOOOOOXX..OOOO.OOO",
"XXOXXOOOOOOOOOOOXOOOOOXXOOOXO+O+#XXOOOOOOOOXXX..XX.XXXXXX.XXOX. ",
"OOOX..OOOOOOOOOOXXOOOO.OOOO.OOO++...O.OOOOOOOXXXX..@O@@@O@@.XXXX",
"OOOXOOOXX.XXXX.X.XXXX.XOOOOOOOOXO.OOO.OXOOOXOXXX.XX+o+O+o+O.XX. ",
"OXXX.XXX.O.OOXXX.XXXOXXOOO.OOOOOX..XXX.O.OOXXX.XXXOO+++O+++.XX. ",
"OOOOXOOOX.OXXXXXXOXXXOXXXXXXX@O@@XXOOOX.OXXXXXXOXXXOOO+OOO+XXXOO",
"oOOOOOOOO..XXXXOOOXXOOOXOXOXXOXOOXOOOOO..XXXXOOOXXOOOXOXOXXOXXOO",
"+OOOOOOOOOXOOXOOOOXO@O@OX@@@@@OO@@@@@@@+oOOXOOOOXO@O@OX@@@@@OOXO",
"OXOOOOOOOXOOOOOXOO.OOOOOOOOOOOOo+++++++oOOOOOXOO.OOOOOOOOOOOOOOX",
"XXO..OOOOOOOOXOOOO.OOXOOOOOOOXOXO..OOOOOOOOXOOOO.OOXOOOOOOOXOOOO",
"XX....OOOOO.OXXOX..OO.OOOOOOOXOX....OOOOO.OXXOX..OO.OOOOOOOXOOXO",
"  XX   OO X  X OXX.X......XXXXX XX   OO X  X OXX.X......XXXXX X "
};
